<mxfile host="Electron" agent="Mozilla/5.0 (X11; Linux x86_64) AppleWebKit/537.36 (KHTML, like Gecko) draw.io/26.2.2 Chrome/134.0.6998.178 Electron/35.1.2 Safari/537.36" version="26.2.2" pages="2">
  <diagram name="SVA_Demo+HandsOn" id="QHhh8djdKkmkysJTYyEe">
    <mxGraphModel dx="1386" dy="807" grid="1" gridSize="10" guides="1" tooltips="1" connect="1" arrows="1" fold="1" page="1" pageScale="1" pageWidth="850" pageHeight="1100" math="0" shadow="0">
      <root>
        <mxCell id="0" />
        <mxCell id="1" parent="0" />
        <mxCell id="QIl3BlAEWIEqqVx9ZjSI-1" value="SVA IBM Cloud Account" style="rounded=0;whiteSpace=wrap;html=1;" parent="1" vertex="1">
          <mxGeometry x="20" y="40" width="120" height="40" as="geometry" />
        </mxCell>
        <mxCell id="QIl3BlAEWIEqqVx9ZjSI-2" value="AIM Prep (Arne)&lt;div&gt;Demo (Martin)&lt;/div&gt;" style="swimlane;fontStyle=0;childLayout=stackLayout;horizontal=1;startSize=30;horizontalStack=0;resizeParent=1;resizeParentMax=0;resizeLast=0;collapsible=1;marginBottom=0;whiteSpace=wrap;html=1;" parent="1" vertex="1">
          <mxGeometry x="190" y="40" width="140" height="150" as="geometry">
            <mxRectangle x="360" y="240" width="160" height="30" as="alternateBounds" />
          </mxGeometry>
        </mxCell>
        <mxCell id="QIl3BlAEWIEqqVx9ZjSI-3" value="Invite Users" style="text;strokeColor=none;fillColor=none;align=left;verticalAlign=middle;spacingLeft=4;spacingRight=4;overflow=hidden;points=[[0,0.5],[1,0.5]];portConstraint=eastwest;rotatable=0;whiteSpace=wrap;html=1;" parent="QIl3BlAEWIEqqVx9ZjSI-2" vertex="1">
          <mxGeometry y="30" width="140" height="30" as="geometry" />
        </mxCell>
        <mxCell id="QIl3BlAEWIEqqVx9ZjSI-4" value="Create Ressource Groups (per User)" style="text;strokeColor=none;fillColor=none;align=left;verticalAlign=middle;spacingLeft=4;spacingRight=4;overflow=hidden;points=[[0,0.5],[1,0.5]];portConstraint=eastwest;rotatable=0;whiteSpace=wrap;html=1;" parent="QIl3BlAEWIEqqVx9ZjSI-2" vertex="1">
          <mxGeometry y="60" width="140" height="30" as="geometry" />
        </mxCell>
        <mxCell id="QIl3BlAEWIEqqVx9ZjSI-5" value="Create Access Groups" style="text;strokeColor=none;fillColor=none;align=left;verticalAlign=middle;spacingLeft=4;spacingRight=4;overflow=hidden;points=[[0,0.5],[1,0.5]];portConstraint=eastwest;rotatable=0;whiteSpace=wrap;html=1;" parent="QIl3BlAEWIEqqVx9ZjSI-2" vertex="1">
          <mxGeometry y="90" width="140" height="30" as="geometry" />
        </mxCell>
        <mxCell id="QIl3BlAEWIEqqVx9ZjSI-13" value="Assign Access Groups" style="text;strokeColor=none;fillColor=none;align=left;verticalAlign=middle;spacingLeft=4;spacingRight=4;overflow=hidden;points=[[0,0.5],[1,0.5]];portConstraint=eastwest;rotatable=0;whiteSpace=wrap;html=1;" parent="QIl3BlAEWIEqqVx9ZjSI-2" vertex="1">
          <mxGeometry y="120" width="140" height="30" as="geometry" />
        </mxCell>
        <mxCell id="QIl3BlAEWIEqqVx9ZjSI-14" value="Übung/Demo:&lt;br&gt;SPP (Martin)" style="swimlane;fontStyle=0;childLayout=stackLayout;horizontal=1;startSize=30;horizontalStack=0;resizeParent=1;resizeParentMax=0;resizeLast=0;collapsible=1;marginBottom=0;whiteSpace=wrap;html=1;" parent="1" vertex="1">
          <mxGeometry x="610" y="40" width="140" height="90" as="geometry" />
        </mxCell>
        <mxCell id="QIl3BlAEWIEqqVx9ZjSI-16" value="Workspace in Shared RG anlegen" style="text;strokeColor=none;fillColor=none;align=left;verticalAlign=middle;spacingLeft=4;spacingRight=4;overflow=hidden;points=[[0,0.5],[1,0.5]];portConstraint=eastwest;rotatable=0;whiteSpace=wrap;html=1;" parent="QIl3BlAEWIEqqVx9ZjSI-14" vertex="1">
          <mxGeometry y="30" width="140" height="30" as="geometry" />
        </mxCell>
        <mxCell id="QIl3BlAEWIEqqVx9ZjSI-15" value="SPP Anlegen" style="text;strokeColor=none;fillColor=none;align=left;verticalAlign=middle;spacingLeft=4;spacingRight=4;overflow=hidden;points=[[0,0.5],[1,0.5]];portConstraint=eastwest;rotatable=0;whiteSpace=wrap;html=1;" parent="QIl3BlAEWIEqqVx9ZjSI-14" vertex="1">
          <mxGeometry y="60" width="140" height="30" as="geometry" />
        </mxCell>
        <mxCell id="QIl3BlAEWIEqqVx9ZjSI-18" style="edgeStyle=orthogonalEdgeStyle;rounded=0;orthogonalLoop=1;jettySize=auto;html=1;exitX=1;exitY=0.5;exitDx=0;exitDy=0;entryX=0;entryY=0.133;entryDx=0;entryDy=0;entryPerimeter=0;" parent="1" source="QIl3BlAEWIEqqVx9ZjSI-1" target="QIl3BlAEWIEqqVx9ZjSI-2" edge="1">
          <mxGeometry relative="1" as="geometry" />
        </mxCell>
        <mxCell id="QIl3BlAEWIEqqVx9ZjSI-19" value="Jeder User hat seine RG mit Rechten" style="rounded=0;whiteSpace=wrap;html=1;" parent="1" vertex="1">
          <mxGeometry x="200" y="234" width="120" height="40" as="geometry" />
        </mxCell>
        <mxCell id="QIl3BlAEWIEqqVx9ZjSI-21" value="Prep&amp;nbsp;&lt;span style=&quot;background-color: transparent; color: light-dark(rgb(0, 0, 0), rgb(255, 255, 255));&quot;&gt;Shared Services (Arne)&lt;/span&gt;" style="swimlane;fontStyle=0;childLayout=stackLayout;horizontal=1;startSize=30;horizontalStack=0;resizeParent=1;resizeParentMax=0;resizeLast=0;collapsible=1;marginBottom=0;whiteSpace=wrap;html=1;" parent="1" vertex="1">
          <mxGeometry x="400" y="40" width="140" height="150" as="geometry" />
        </mxCell>
        <mxCell id="QIl3BlAEWIEqqVx9ZjSI-22" value="Shared Services RG" style="text;strokeColor=none;fillColor=none;align=left;verticalAlign=middle;spacingLeft=4;spacingRight=4;overflow=hidden;points=[[0,0.5],[1,0.5]];portConstraint=eastwest;rotatable=0;whiteSpace=wrap;html=1;" parent="QIl3BlAEWIEqqVx9ZjSI-21" vertex="1">
          <mxGeometry y="30" width="140" height="30" as="geometry" />
        </mxCell>
        <mxCell id="QIl3BlAEWIEqqVx9ZjSI-23" value="D&lt;span style=&quot;background-color: transparent; color: light-dark(rgb(0, 0, 0), rgb(255, 255, 255));&quot;&gt;eploy Monitoring&lt;/span&gt;" style="text;strokeColor=none;fillColor=none;align=left;verticalAlign=middle;spacingLeft=4;spacingRight=4;overflow=hidden;points=[[0,0.5],[1,0.5]];portConstraint=eastwest;rotatable=0;whiteSpace=wrap;html=1;" parent="QIl3BlAEWIEqqVx9ZjSI-21" vertex="1">
          <mxGeometry y="60" width="140" height="30" as="geometry" />
        </mxCell>
        <mxCell id="QIl3BlAEWIEqqVx9ZjSI-24" value="Deploy PVS Workspace &amp;amp; Link Monitoring" style="text;strokeColor=none;fillColor=none;align=left;verticalAlign=middle;spacingLeft=4;spacingRight=4;overflow=hidden;points=[[0,0.5],[1,0.5]];portConstraint=eastwest;rotatable=0;whiteSpace=wrap;html=1;" parent="QIl3BlAEWIEqqVx9ZjSI-21" vertex="1">
          <mxGeometry y="90" width="140" height="30" as="geometry" />
        </mxCell>
        <mxCell id="fZKxiO_JCQ-5sZzVvU43-2" value="Assign Access to all Users to shared Workspace" style="text;strokeColor=none;fillColor=none;align=left;verticalAlign=middle;spacingLeft=4;spacingRight=4;overflow=hidden;points=[[0,0.5],[1,0.5]];portConstraint=eastwest;rotatable=0;whiteSpace=wrap;html=1;" parent="QIl3BlAEWIEqqVx9ZjSI-21" vertex="1">
          <mxGeometry y="120" width="140" height="30" as="geometry" />
        </mxCell>
        <mxCell id="QIl3BlAEWIEqqVx9ZjSI-25" value="Demo: (Martin)&lt;div&gt;Network, TGW, Jumphost&lt;/div&gt;" style="swimlane;fontStyle=0;childLayout=stackLayout;horizontal=1;startSize=30;horizontalStack=0;resizeParent=1;resizeParentMax=0;resizeLast=0;collapsible=1;marginBottom=0;whiteSpace=wrap;html=1;" parent="1" vertex="1">
          <mxGeometry x="400" y="399" width="140" height="120" as="geometry" />
        </mxCell>
        <mxCell id="QIl3BlAEWIEqqVx9ZjSI-26" value="Deploy TGW" style="text;strokeColor=none;fillColor=none;align=left;verticalAlign=middle;spacingLeft=4;spacingRight=4;overflow=hidden;points=[[0,0.5],[1,0.5]];portConstraint=eastwest;rotatable=0;whiteSpace=wrap;html=1;" parent="QIl3BlAEWIEqqVx9ZjSI-25" vertex="1">
          <mxGeometry y="30" width="140" height="30" as="geometry" />
        </mxCell>
        <mxCell id="QIl3BlAEWIEqqVx9ZjSI-27" value="Link all WS to TGW" style="text;strokeColor=none;fillColor=none;align=left;verticalAlign=middle;spacingLeft=4;spacingRight=4;overflow=hidden;points=[[0,0.5],[1,0.5]];portConstraint=eastwest;rotatable=0;whiteSpace=wrap;html=1;" parent="QIl3BlAEWIEqqVx9ZjSI-25" vertex="1">
          <mxGeometry y="60" width="140" height="30" as="geometry" />
        </mxCell>
        <mxCell id="QIl3BlAEWIEqqVx9ZjSI-28" value="Generate an show list of routes" style="text;strokeColor=none;fillColor=none;align=left;verticalAlign=middle;spacingLeft=4;spacingRight=4;overflow=hidden;points=[[0,0.5],[1,0.5]];portConstraint=eastwest;rotatable=0;whiteSpace=wrap;html=1;" parent="QIl3BlAEWIEqqVx9ZjSI-25" vertex="1">
          <mxGeometry y="90" width="140" height="30" as="geometry" />
        </mxCell>
        <mxCell id="QIl3BlAEWIEqqVx9ZjSI-34" value="Shared Services eingerichtet" style="rounded=0;whiteSpace=wrap;html=1;" parent="1" vertex="1">
          <mxGeometry x="410" y="234" width="120" height="40" as="geometry" />
        </mxCell>
        <mxCell id="QIl3BlAEWIEqqVx9ZjSI-38" value="Übung:&lt;br&gt;Power VS WS (User)" style="swimlane;fontStyle=0;childLayout=stackLayout;horizontal=1;startSize=30;horizontalStack=0;resizeParent=1;resizeParentMax=0;resizeLast=0;collapsible=1;marginBottom=0;whiteSpace=wrap;html=1;" parent="1" vertex="1">
          <mxGeometry x="190" y="399" width="140" height="180" as="geometry" />
        </mxCell>
        <mxCell id="QIl3BlAEWIEqqVx9ZjSI-39" value="Workspce in eigener RG anlegen" style="text;strokeColor=none;fillColor=none;align=left;verticalAlign=middle;spacingLeft=4;spacingRight=4;overflow=hidden;points=[[0,0.5],[1,0.5]];portConstraint=eastwest;rotatable=0;whiteSpace=wrap;html=1;" parent="QIl3BlAEWIEqqVx9ZjSI-38" vertex="1">
          <mxGeometry y="30" width="140" height="30" as="geometry" />
        </mxCell>
        <mxCell id="QIl3BlAEWIEqqVx9ZjSI-42" value="Subnetz im eigenen WS anlegen" style="text;strokeColor=none;fillColor=none;align=left;verticalAlign=middle;spacingLeft=4;spacingRight=4;overflow=hidden;points=[[0,0.5],[1,0.5]];portConstraint=eastwest;rotatable=0;whiteSpace=wrap;html=1;" parent="QIl3BlAEWIEqqVx9ZjSI-38" vertex="1">
          <mxGeometry y="60" width="140" height="30" as="geometry" />
        </mxCell>
        <mxCell id="QIl3BlAEWIEqqVx9ZjSI-44" value="eigenen SSH key anlegen" style="text;strokeColor=none;fillColor=none;align=left;verticalAlign=middle;spacingLeft=4;spacingRight=4;overflow=hidden;points=[[0,0.5],[1,0.5]];portConstraint=eastwest;rotatable=0;whiteSpace=wrap;html=1;" parent="QIl3BlAEWIEqqVx9ZjSI-38" vertex="1">
          <mxGeometry y="90" width="140" height="30" as="geometry" />
        </mxCell>
        <mxCell id="QIl3BlAEWIEqqVx9ZjSI-40" value="LPAR + Volume in eigenem WS anlegen" style="text;strokeColor=none;fillColor=none;align=left;verticalAlign=middle;spacingLeft=4;spacingRight=4;overflow=hidden;points=[[0,0.5],[1,0.5]];portConstraint=eastwest;rotatable=0;whiteSpace=wrap;html=1;" parent="QIl3BlAEWIEqqVx9ZjSI-38" vertex="1">
          <mxGeometry y="120" width="140" height="30" as="geometry" />
        </mxCell>
        <mxCell id="QIl3BlAEWIEqqVx9ZjSI-41" value="LPAR im GUI verwalten (Stop,Start,Resize,VNC)" style="text;strokeColor=none;fillColor=none;align=left;verticalAlign=middle;spacingLeft=4;spacingRight=4;overflow=hidden;points=[[0,0.5],[1,0.5]];portConstraint=eastwest;rotatable=0;whiteSpace=wrap;html=1;" parent="QIl3BlAEWIEqqVx9ZjSI-38" vertex="1">
          <mxGeometry y="150" width="140" height="30" as="geometry" />
        </mxCell>
        <mxCell id="QIl3BlAEWIEqqVx9ZjSI-43" value="PVS Subnetze, Linux User/Passwort vorgeben (Martin)" style="rounded=0;whiteSpace=wrap;html=1;" parent="1" vertex="1">
          <mxGeometry x="20" y="491" width="120" height="49" as="geometry" />
        </mxCell>
        <mxCell id="QIl3BlAEWIEqqVx9ZjSI-45" value="Übung/Demo:&lt;br&gt;SPP (User)" style="swimlane;fontStyle=0;childLayout=stackLayout;horizontal=1;startSize=30;horizontalStack=0;resizeParent=1;resizeParentMax=0;resizeLast=0;collapsible=1;marginBottom=0;whiteSpace=wrap;html=1;" parent="1" vertex="1">
          <mxGeometry x="190" y="720" width="140" height="110" as="geometry" />
        </mxCell>
        <mxCell id="QIl3BlAEWIEqqVx9ZjSI-46" value="play with the GUI to deploy LPAR in SPP" style="text;strokeColor=none;fillColor=none;align=left;verticalAlign=middle;spacingLeft=4;spacingRight=4;overflow=hidden;points=[[0,0.5],[1,0.5]];portConstraint=eastwest;rotatable=0;whiteSpace=wrap;html=1;" parent="QIl3BlAEWIEqqVx9ZjSI-45" vertex="1">
          <mxGeometry y="30" width="140" height="30" as="geometry" />
        </mxCell>
        <mxCell id="QIl3BlAEWIEqqVx9ZjSI-47" value="Ping / SSH between own and SPP LPARs&lt;div&gt;(optional)&lt;/div&gt;" style="text;strokeColor=none;fillColor=none;align=left;verticalAlign=middle;spacingLeft=4;spacingRight=4;overflow=hidden;points=[[0,0.5],[1,0.5]];portConstraint=eastwest;rotatable=0;whiteSpace=wrap;html=1;" parent="QIl3BlAEWIEqqVx9ZjSI-45" vertex="1">
          <mxGeometry y="60" width="140" height="50" as="geometry" />
        </mxCell>
        <mxCell id="fZKxiO_JCQ-5sZzVvU43-3" value="User haben Admin Rechte auf shared Workspace" style="rounded=0;whiteSpace=wrap;html=1;" parent="1" vertex="1">
          <mxGeometry x="410" y="274" width="120" height="46" as="geometry" />
        </mxCell>
        <mxCell id="fZKxiO_JCQ-5sZzVvU43-5" value="" style="edgeStyle=orthogonalEdgeStyle;rounded=0;orthogonalLoop=1;jettySize=auto;html=1;" parent="1" source="QIl3BlAEWIEqqVx9ZjSI-23" target="QIl3BlAEWIEqqVx9ZjSI-15" edge="1">
          <mxGeometry relative="1" as="geometry" />
        </mxCell>
        <mxCell id="fZKxiO_JCQ-5sZzVvU43-6" value="" style="edgeStyle=orthogonalEdgeStyle;rounded=0;orthogonalLoop=1;jettySize=auto;html=1;entryX=0;entryY=0.5;entryDx=0;entryDy=0;" parent="1" source="QIl3BlAEWIEqqVx9ZjSI-4" target="QIl3BlAEWIEqqVx9ZjSI-23" edge="1">
          <mxGeometry relative="1" as="geometry" />
        </mxCell>
        <mxCell id="fZKxiO_JCQ-5sZzVvU43-7" value="Linux Jumphost mit Usern/Passwort anlegen (Martin" style="rounded=0;whiteSpace=wrap;html=1;" parent="1" vertex="1">
          <mxGeometry x="20" y="440" width="120" height="51" as="geometry" />
        </mxCell>
        <mxCell id="fZKxiO_JCQ-5sZzVvU43-8" value="Demo: (Martin)&lt;div&gt;Support / Tickets&lt;/div&gt;" style="swimlane;fontStyle=0;childLayout=stackLayout;horizontal=1;startSize=30;horizontalStack=0;resizeParent=1;resizeParentMax=0;resizeLast=0;collapsible=1;marginBottom=0;whiteSpace=wrap;html=1;" parent="1" vertex="1">
          <mxGeometry x="190" y="1000" width="140" height="80" as="geometry" />
        </mxCell>
        <mxCell id="fZKxiO_JCQ-5sZzVvU43-9" value="Show Support section and existing Tickets in IBM ITZ account" style="text;strokeColor=none;fillColor=none;align=left;verticalAlign=middle;spacingLeft=4;spacingRight=4;overflow=hidden;points=[[0,0.5],[1,0.5]];portConstraint=eastwest;rotatable=0;whiteSpace=wrap;html=1;" parent="fZKxiO_JCQ-5sZzVvU43-8" vertex="1">
          <mxGeometry y="30" width="140" height="50" as="geometry" />
        </mxCell>
        <mxCell id="fZKxiO_JCQ-5sZzVvU43-12" value="VPC anlegen (Martin)" style="rounded=0;whiteSpace=wrap;html=1;" parent="1" vertex="1">
          <mxGeometry x="20" y="400" width="120" height="40" as="geometry" />
        </mxCell>
        <mxCell id="fZKxiO_JCQ-5sZzVvU43-13" value="Übung Jumphost/SSH (User)" style="swimlane;fontStyle=0;childLayout=stackLayout;horizontal=1;startSize=30;horizontalStack=0;resizeParent=1;resizeParentMax=0;resizeLast=0;collapsible=1;marginBottom=0;whiteSpace=wrap;html=1;" parent="1" vertex="1">
          <mxGeometry x="610" y="400" width="140" height="120" as="geometry" />
        </mxCell>
        <mxCell id="fZKxiO_JCQ-5sZzVvU43-14" value="Login to Jumphost via Public IP (user/pswd)" style="text;strokeColor=none;fillColor=none;align=left;verticalAlign=middle;spacingLeft=4;spacingRight=4;overflow=hidden;points=[[0,0.5],[1,0.5]];portConstraint=eastwest;rotatable=0;whiteSpace=wrap;html=1;" parent="fZKxiO_JCQ-5sZzVvU43-13" vertex="1">
          <mxGeometry y="30" width="140" height="30" as="geometry" />
        </mxCell>
        <mxCell id="fZKxiO_JCQ-5sZzVvU43-15" value="SSH connection to own LPAR" style="text;strokeColor=none;fillColor=none;align=left;verticalAlign=middle;spacingLeft=4;spacingRight=4;overflow=hidden;points=[[0,0.5],[1,0.5]];portConstraint=eastwest;rotatable=0;whiteSpace=wrap;html=1;" parent="fZKxiO_JCQ-5sZzVvU43-13" vertex="1">
          <mxGeometry y="60" width="140" height="30" as="geometry" />
        </mxCell>
        <mxCell id="fZKxiO_JCQ-5sZzVvU43-16" value="Install IBM Cloud CLI (optional)" style="text;strokeColor=none;fillColor=none;align=left;verticalAlign=middle;spacingLeft=4;spacingRight=4;overflow=hidden;points=[[0,0.5],[1,0.5]];portConstraint=eastwest;rotatable=0;whiteSpace=wrap;html=1;" parent="fZKxiO_JCQ-5sZzVvU43-13" vertex="1">
          <mxGeometry y="90" width="140" height="30" as="geometry" />
        </mxCell>
        <mxCell id="fZKxiO_JCQ-5sZzVvU43-17" value="" style="edgeStyle=orthogonalEdgeStyle;rounded=0;orthogonalLoop=1;jettySize=auto;html=1;entryX=0;entryY=0.5;entryDx=0;entryDy=0;" parent="1" source="QIl3BlAEWIEqqVx9ZjSI-42" target="QIl3BlAEWIEqqVx9ZjSI-27" edge="1">
          <mxGeometry relative="1" as="geometry" />
        </mxCell>
        <mxCell id="fZKxiO_JCQ-5sZzVvU43-18" value="" style="edgeStyle=orthogonalEdgeStyle;rounded=0;orthogonalLoop=1;jettySize=auto;html=1;entryX=0;entryY=0.5;entryDx=0;entryDy=0;" parent="1" source="QIl3BlAEWIEqqVx9ZjSI-27" target="fZKxiO_JCQ-5sZzVvU43-15" edge="1">
          <mxGeometry relative="1" as="geometry" />
        </mxCell>
        <mxCell id="fZKxiO_JCQ-5sZzVvU43-20" style="edgeStyle=orthogonalEdgeStyle;rounded=0;orthogonalLoop=1;jettySize=auto;html=1;entryX=0.5;entryY=0;entryDx=0;entryDy=0;exitX=1;exitY=0.5;exitDx=0;exitDy=0;" parent="1" source="QIl3BlAEWIEqqVx9ZjSI-15" target="QIl3BlAEWIEqqVx9ZjSI-38" edge="1">
          <mxGeometry relative="1" as="geometry">
            <Array as="points">
              <mxPoint x="800" y="115" />
              <mxPoint x="800" y="350" />
              <mxPoint x="260" y="350" />
            </Array>
          </mxGeometry>
        </mxCell>
        <mxCell id="fZKxiO_JCQ-5sZzVvU43-21" style="edgeStyle=orthogonalEdgeStyle;rounded=0;orthogonalLoop=1;jettySize=auto;html=1;entryX=0.5;entryY=0;entryDx=0;entryDy=0;exitX=1;exitY=0.5;exitDx=0;exitDy=0;" parent="1" source="fZKxiO_JCQ-5sZzVvU43-15" target="QIl3BlAEWIEqqVx9ZjSI-45" edge="1">
          <mxGeometry relative="1" as="geometry">
            <Array as="points">
              <mxPoint x="800" y="475" />
              <mxPoint x="800" y="680" />
              <mxPoint x="260" y="680" />
            </Array>
          </mxGeometry>
        </mxCell>
        <mxCell id="fZKxiO_JCQ-5sZzVvU43-22" value="Übung Snapshot &amp;amp; Clone via CLI (User)" style="swimlane;fontStyle=0;childLayout=stackLayout;horizontal=1;startSize=30;horizontalStack=0;resizeParent=1;resizeParentMax=0;resizeLast=0;collapsible=1;marginBottom=0;whiteSpace=wrap;html=1;" parent="1" vertex="1">
          <mxGeometry x="400" y="720" width="140" height="210" as="geometry" />
        </mxCell>
        <mxCell id="fZKxiO_JCQ-5sZzVvU43-23" value="User local CLI or Cloud Shell" style="text;strokeColor=none;fillColor=none;align=left;verticalAlign=middle;spacingLeft=4;spacingRight=4;overflow=hidden;points=[[0,0.5],[1,0.5]];portConstraint=eastwest;rotatable=0;whiteSpace=wrap;html=1;" parent="fZKxiO_JCQ-5sZzVvU43-22" vertex="1">
          <mxGeometry y="30" width="140" height="30" as="geometry" />
        </mxCell>
        <mxCell id="fZKxiO_JCQ-5sZzVvU43-24" value="Create snapshot of instance" style="text;strokeColor=none;fillColor=none;align=left;verticalAlign=middle;spacingLeft=4;spacingRight=4;overflow=hidden;points=[[0,0.5],[1,0.5]];portConstraint=eastwest;rotatable=0;whiteSpace=wrap;html=1;" parent="fZKxiO_JCQ-5sZzVvU43-22" vertex="1">
          <mxGeometry y="60" width="140" height="30" as="geometry" />
        </mxCell>
        <mxCell id="fZKxiO_JCQ-5sZzVvU43-25" value="Create snapshot of data volume" style="text;strokeColor=none;fillColor=none;align=left;verticalAlign=middle;spacingLeft=4;spacingRight=4;overflow=hidden;points=[[0,0.5],[1,0.5]];portConstraint=eastwest;rotatable=0;whiteSpace=wrap;html=1;" parent="fZKxiO_JCQ-5sZzVvU43-22" vertex="1">
          <mxGeometry y="90" width="140" height="30" as="geometry" />
        </mxCell>
        <mxCell id="fZKxiO_JCQ-5sZzVvU43-26" value="Create clone of data volume" style="text;strokeColor=none;fillColor=none;align=left;verticalAlign=middle;spacingLeft=4;spacingRight=4;overflow=hidden;points=[[0,0.5],[1,0.5]];portConstraint=eastwest;rotatable=0;whiteSpace=wrap;html=1;" parent="fZKxiO_JCQ-5sZzVvU43-22" vertex="1">
          <mxGeometry y="120" width="140" height="30" as="geometry" />
        </mxCell>
        <mxCell id="fZKxiO_JCQ-5sZzVvU43-27" value="Create 2nd LPAR" style="text;strokeColor=none;fillColor=none;align=left;verticalAlign=middle;spacingLeft=4;spacingRight=4;overflow=hidden;points=[[0,0.5],[1,0.5]];portConstraint=eastwest;rotatable=0;whiteSpace=wrap;html=1;" parent="fZKxiO_JCQ-5sZzVvU43-22" vertex="1">
          <mxGeometry y="150" width="140" height="30" as="geometry" />
        </mxCell>
        <mxCell id="fZKxiO_JCQ-5sZzVvU43-28" value="Attach clone of data volume to 2nd LPAR" style="text;strokeColor=none;fillColor=none;align=left;verticalAlign=middle;spacingLeft=4;spacingRight=4;overflow=hidden;points=[[0,0.5],[1,0.5]];portConstraint=eastwest;rotatable=0;whiteSpace=wrap;html=1;" parent="fZKxiO_JCQ-5sZzVvU43-22" vertex="1">
          <mxGeometry y="180" width="140" height="30" as="geometry" />
        </mxCell>
        <mxCell id="fZKxiO_JCQ-5sZzVvU43-29" style="edgeStyle=orthogonalEdgeStyle;rounded=0;orthogonalLoop=1;jettySize=auto;html=1;entryX=0.007;entryY=0.867;entryDx=0;entryDy=0;entryPerimeter=0;" parent="1" source="QIl3BlAEWIEqqVx9ZjSI-47" target="fZKxiO_JCQ-5sZzVvU43-24" edge="1">
          <mxGeometry relative="1" as="geometry">
            <mxPoint x="390" y="805" as="targetPoint" />
          </mxGeometry>
        </mxCell>
        <mxCell id="fZKxiO_JCQ-5sZzVvU43-31" value="WS mit SPP vorberietet für Übung" style="rounded=0;whiteSpace=wrap;html=1;" parent="1" vertex="1">
          <mxGeometry x="620" y="234" width="120" height="40" as="geometry" />
        </mxCell>
        <mxCell id="3HeUHm7ah6VVnpcwaNAM-1" value="Demo: (Martin)&lt;div&gt;Backup aaS&lt;/div&gt;" style="swimlane;fontStyle=0;childLayout=stackLayout;horizontal=1;startSize=30;horizontalStack=0;resizeParent=1;resizeParentMax=0;resizeLast=0;collapsible=1;marginBottom=0;whiteSpace=wrap;html=1;" vertex="1" parent="1">
          <mxGeometry x="400" y="1000" width="140" height="80" as="geometry" />
        </mxCell>
        <mxCell id="3HeUHm7ah6VVnpcwaNAM-2" value="Show BaaS in IBM ITZ account" style="text;strokeColor=none;fillColor=none;align=left;verticalAlign=middle;spacingLeft=4;spacingRight=4;overflow=hidden;points=[[0,0.5],[1,0.5]];portConstraint=eastwest;rotatable=0;whiteSpace=wrap;html=1;" vertex="1" parent="3HeUHm7ah6VVnpcwaNAM-1">
          <mxGeometry y="30" width="140" height="50" as="geometry" />
        </mxCell>
        <mxCell id="ix97OetOCc_NL2NPbVNg-1" value="Demo: (Martin)&lt;div&gt;Monitoring&lt;/div&gt;" style="swimlane;fontStyle=0;childLayout=stackLayout;horizontal=1;startSize=30;horizontalStack=0;resizeParent=1;resizeParentMax=0;resizeLast=0;collapsible=1;marginBottom=0;whiteSpace=wrap;html=1;" vertex="1" parent="1">
          <mxGeometry x="610" y="1000" width="140" height="80" as="geometry" />
        </mxCell>
        <mxCell id="ix97OetOCc_NL2NPbVNg-2" value="Show IBM Cloud Monitoring" style="text;strokeColor=none;fillColor=none;align=left;verticalAlign=middle;spacingLeft=4;spacingRight=4;overflow=hidden;points=[[0,0.5],[1,0.5]];portConstraint=eastwest;rotatable=0;whiteSpace=wrap;html=1;" vertex="1" parent="ix97OetOCc_NL2NPbVNg-1">
          <mxGeometry y="30" width="140" height="50" as="geometry" />
        </mxCell>
      </root>
    </mxGraphModel>
  </diagram>
  <diagram name="SVA-PVS-WorshopSetup" id="-d_RBSgC81dFDEptjROM">
    <mxGraphModel dx="1386" dy="807" grid="1" gridSize="10" guides="1" tooltips="1" connect="1" arrows="1" fold="1" page="1" pageScale="1" pageWidth="1169" pageHeight="827" math="0" shadow="0">
      <root>
        <mxCell id="hI6pShK_uIfL2IwK5o8l-0" />
        <object label="0. IBM Cloud DC" id="hI6pShK_uIfL2IwK5o8l-1">
          <mxCell style="locked=1;" parent="hI6pShK_uIfL2IwK5o8l-0" />
        </object>
        <mxCell id="hI6pShK_uIfL2IwK5o8l-2" value="Enterprise Network" style="shape=mxgraph.ibm.box;prType=enterprise;fontStyle=0;verticalAlign=top;align=left;spacingLeft=32;spacingTop=4;fillColor=none;rounded=0;whiteSpace=wrap;html=1;strokeColor=#4376BB;strokeWidth=3;dashed=0;container=1;spacing=-4;collapsible=0;expand=0;recursiveResize=0;" parent="hI6pShK_uIfL2IwK5o8l-1" vertex="1">
          <mxGeometry x="30" y="413" width="240" height="387" as="geometry" />
        </mxCell>
        <mxCell id="hI6pShK_uIfL2IwK5o8l-3" value="" style="fontColor=#0066CC;verticalAlign=top;verticalLabelPosition=bottom;labelPosition=center;align=center;html=1;outlineConnect=0;fillColor=#CCCCCC;strokeColor=#6881B3;gradientColor=none;gradientDirection=north;strokeWidth=2;shape=mxgraph.networks.community;" parent="hI6pShK_uIfL2IwK5o8l-2" vertex="1">
          <mxGeometry x="30" y="137" width="95" height="100" as="geometry" />
        </mxCell>
        <mxCell id="hI6pShK_uIfL2IwK5o8l-4" value="Public Network" style="shape=mxgraph.ibm.box;prType=public;fontStyle=0;verticalAlign=top;align=left;spacingLeft=32;spacingTop=4;fillColor=none;rounded=0;whiteSpace=wrap;html=1;strokeColor=#4376BB;strokeWidth=3;dashed=0;container=1;spacing=-4;collapsible=0;expand=0;recursiveResize=0;" parent="hI6pShK_uIfL2IwK5o8l-1" vertex="1">
          <mxGeometry x="30" y="40" width="240" height="360" as="geometry" />
        </mxCell>
        <mxCell id="hI6pShK_uIfL2IwK5o8l-5" value="" style="fontColor=#0066CC;verticalAlign=top;verticalLabelPosition=bottom;labelPosition=center;align=center;html=1;outlineConnect=0;fillColor=#CCCCCC;strokeColor=#6881B3;gradientColor=none;gradientDirection=north;strokeWidth=2;shape=mxgraph.networks.business_center;" parent="hI6pShK_uIfL2IwK5o8l-4" vertex="1">
          <mxGeometry x="30" y="120" width="90" height="100" as="geometry" />
        </mxCell>
        <mxCell id="hI6pShK_uIfL2IwK5o8l-6" value="IBM Cloud" style="shape=mxgraph.ibm.box;prType=cloud;fontStyle=0;verticalAlign=top;align=left;spacingLeft=32;spacingTop=4;fillColor=none;rounded=0;whiteSpace=wrap;html=1;strokeColor=#4376BB;strokeWidth=3;dashed=0;container=1;spacing=-4;collapsible=0;expand=0;recursiveResize=0;" parent="hI6pShK_uIfL2IwK5o8l-1" vertex="1">
          <mxGeometry x="280" y="40" width="840" height="760" as="geometry" />
        </mxCell>
        <mxCell id="hI6pShK_uIfL2IwK5o8l-8" value="Cloud Services" style="fontStyle=0;verticalAlign=top;align=center;spacingTop=-2;fillColor=none;rounded=0;whiteSpace=wrap;html=1;strokeColor=#4376BB;strokeWidth=1;dashed=0;container=1;collapsible=0;expand=0;recursiveResize=0;" parent="hI6pShK_uIfL2IwK5o8l-6" vertex="1">
          <mxGeometry x="710" y="10" width="120" height="740" as="geometry" />
        </mxCell>
        <mxCell id="hI6pShK_uIfL2IwK5o8l-9" value="Virtual Private Cloud (VPC) x86" style="shape=mxgraph.ibm.box;prType=vpc;fontStyle=0;verticalAlign=top;align=left;spacingLeft=32;spacingTop=4;fillColor=none;rounded=0;whiteSpace=wrap;html=1;strokeColor=#4376BB;strokeWidth=2;dashed=0;container=1;spacing=-4;collapsible=0;expand=0;recursiveResize=0;" parent="hI6pShK_uIfL2IwK5o8l-6" vertex="1">
          <mxGeometry x="120" y="10" width="580" height="330" as="geometry" />
        </mxCell>
        <mxCell id="hI6pShK_uIfL2IwK5o8l-10" value="Region" style="shape=mxgraph.ibm.box;prType=region;fontStyle=0;verticalAlign=top;align=left;spacingLeft=32;spacingTop=4;fillColor=none;rounded=0;whiteSpace=wrap;html=1;strokeColor=#919191;strokeWidth=2;dashed=0;container=1;spacing=-4;collapsible=0;expand=0;recursiveResize=0;" parent="hI6pShK_uIfL2IwK5o8l-9" vertex="1">
          <mxGeometry x="26" y="25" width="544" height="295" as="geometry" />
        </mxCell>
        <mxCell id="hI6pShK_uIfL2IwK5o8l-11" value="Zone" style="shape=mxgraph.ibm.box;prType=zone;fontStyle=0;verticalAlign=top;align=left;spacingLeft=32;spacingTop=4;fillColor=#E0E0E0;rounded=0;whiteSpace=wrap;html=1;strokeColor=#919191;strokeWidth=1;dashed=0;container=1;spacing=-4;collapsible=0;expand=0;recursiveResize=0;" parent="hI6pShK_uIfL2IwK5o8l-10" vertex="1">
          <mxGeometry x="24" y="24.5" width="516" height="265.5" as="geometry" />
        </mxCell>
        <mxCell id="hI6pShK_uIfL2IwK5o8l-12" value="Subnet:ACL" style="shape=mxgraph.ibm.box;prType=subnet;fontStyle=0;verticalAlign=top;align=left;spacingLeft=32;spacingTop=4;fillColor=#E6F0E2;rounded=0;whiteSpace=wrap;html=1;strokeColor=#00882B;strokeWidth=1;dashed=0;container=1;spacing=-4;collapsible=0;expand=0;recursiveResize=0;" parent="hI6pShK_uIfL2IwK5o8l-11" vertex="1">
          <mxGeometry x="26" y="24.75" width="484" height="235.25" as="geometry" />
        </mxCell>
        <mxCell id="hI6pShK_uIfL2IwK5o8l-13" value="Security Group" style="fontStyle=0;verticalAlign=top;align=center;spacingTop=-2;fillColor=none;rounded=0;whiteSpace=wrap;html=1;strokeColor=#FF0000;strokeWidth=2;dashed=1;container=1;collapsible=0;expand=0;recursiveResize=0;" parent="hI6pShK_uIfL2IwK5o8l-12" vertex="1">
          <mxGeometry x="24" y="25.75" width="456" height="204.25" as="geometry" />
        </mxCell>
        <mxCell id="hI6pShK_uIfL2IwK5o8l-14" value="" style="ellipse;whiteSpace=wrap;html=1;aspect=fixed;fillColor=#FFFFFF;" parent="hI6pShK_uIfL2IwK5o8l-6" vertex="1">
          <mxGeometry x="-50" y="320" width="80" height="80" as="geometry" />
        </mxCell>
        <mxCell id="hI6pShK_uIfL2IwK5o8l-15" value="" style="image;aspect=fixed;perimeter=ellipsePerimeter;html=1;align=center;shadow=0;dashed=0;fontColor=#4277BB;labelBackgroundColor=default;fontSize=12;spacingTop=3;image=img/lib/ibm/vpc/Internet.svg;" parent="hI6pShK_uIfL2IwK5o8l-6" vertex="1">
          <mxGeometry x="-40" y="330" width="60" height="60" as="geometry" />
        </mxCell>
        <mxCell id="hI6pShK_uIfL2IwK5o8l-16" value="Power Systems Virtual Server&lt;br&gt;Shared Workspace" style="shape=mxgraph.ibm.box;prType=classic;fontStyle=0;verticalAlign=top;align=left;spacingLeft=32;spacingTop=4;fillColor=none;rounded=0;whiteSpace=wrap;html=1;strokeColor=#4376BB;strokeWidth=2;dashed=0;container=1;spacing=-4;collapsible=0;expand=0;recursiveResize=0;" parent="hI6pShK_uIfL2IwK5o8l-6" vertex="1">
          <mxGeometry x="430" y="410" width="260" height="340" as="geometry" />
        </mxCell>
        <mxCell id="ibgkzshsJR2pQyboAwVe-0" value="Power Systems Virtual Server&lt;br&gt;Workspace User N" style="shape=mxgraph.ibm.box;prType=classic;fontStyle=0;verticalAlign=top;align=left;spacingLeft=32;spacingTop=4;fillColor=default;rounded=0;whiteSpace=wrap;html=1;strokeColor=#4376BB;strokeWidth=2;dashed=0;container=1;spacing=-4;collapsible=0;expand=0;recursiveResize=0;" vertex="1" parent="hI6pShK_uIfL2IwK5o8l-6">
          <mxGeometry x="140" y="400" width="190" height="310" as="geometry" />
        </mxCell>
        <mxCell id="hI6pShK_uIfL2IwK5o8l-7" value="Power Systems Virtual Server&lt;br&gt;Workspace User 1" style="shape=mxgraph.ibm.box;prType=classic;fontStyle=0;verticalAlign=top;align=left;spacingLeft=32;spacingTop=4;fillColor=default;rounded=0;whiteSpace=wrap;html=1;strokeColor=#4376BB;strokeWidth=2;dashed=0;container=1;spacing=-4;collapsible=0;expand=0;recursiveResize=0;" parent="hI6pShK_uIfL2IwK5o8l-6" vertex="1">
          <mxGeometry x="120" y="440" width="190" height="310" as="geometry" />
        </mxCell>
        <object label="1. Minimum Environment" id="hI6pShK_uIfL2IwK5o8l-17">
          <mxCell style="" parent="hI6pShK_uIfL2IwK5o8l-0" />
        </object>
        <mxCell id="oAfYxlStz5vdsHOmXEBj-1" value="" style="edgeStyle=orthogonalEdgeStyle;rounded=0;orthogonalLoop=1;jettySize=auto;html=1;" edge="1" parent="hI6pShK_uIfL2IwK5o8l-17" source="hI6pShK_uIfL2IwK5o8l-22" target="ritze9ClMiPvCXfz-vvs-11">
          <mxGeometry relative="1" as="geometry" />
        </mxCell>
        <mxCell id="hI6pShK_uIfL2IwK5o8l-22" value="Power LPAR&lt;div&gt;1&amp;nbsp;&lt;/div&gt;" style="image;aspect=fixed;perimeter=ellipsePerimeter;html=1;align=center;shadow=0;dashed=0;fontColor=#4277BB;labelBackgroundColor=default;fontSize=12;spacingTop=3;image=img/lib/ibm/vpc/PowerInstance.svg;" parent="hI6pShK_uIfL2IwK5o8l-17" vertex="1">
          <mxGeometry x="421" y="569" width="60" height="60" as="geometry" />
        </mxCell>
        <mxCell id="oAfYxlStz5vdsHOmXEBj-7" value="Shared Processor Pool" style="fontStyle=0;verticalAlign=top;align=center;spacingTop=-2;fillColor=#f5f5f5;rounded=0;whiteSpace=wrap;html=1;strokeColor=#666666;strokeWidth=2;dashed=1;container=1;collapsible=0;expand=0;recursiveResize=0;fontColor=#333333;" vertex="1" parent="hI6pShK_uIfL2IwK5o8l-17">
          <mxGeometry x="719" y="553" width="241" height="210" as="geometry" />
        </mxCell>
        <mxCell id="oAfYxlStz5vdsHOmXEBj-9" value="Power LPAR&lt;br&gt;N" style="image;aspect=fixed;perimeter=ellipsePerimeter;html=1;align=center;shadow=0;dashed=0;fontColor=#4277BB;labelBackgroundColor=default;fontSize=12;spacingTop=3;image=img/lib/ibm/vpc/PowerInstance.svg;" vertex="1" parent="oAfYxlStz5vdsHOmXEBj-7">
          <mxGeometry x="172" y="21" width="60" height="60" as="geometry" />
        </mxCell>
        <mxCell id="oAfYxlStz5vdsHOmXEBj-10" style="edgeStyle=orthogonalEdgeStyle;rounded=0;orthogonalLoop=1;jettySize=auto;html=1;startArrow=classic;startFill=1;exitX=0.5;exitY=0;exitDx=0;exitDy=0;" edge="1" source="oAfYxlStz5vdsHOmXEBj-9" parent="oAfYxlStz5vdsHOmXEBj-7">
          <mxGeometry relative="1" as="geometry">
            <mxPoint x="203" y="62" as="sourcePoint" />
            <mxPoint x="202" y="-10" as="targetPoint" />
          </mxGeometry>
        </mxCell>
        <mxCell id="GwX5p2IE3mZahsuDqDPP-1" style="edgeStyle=orthogonalEdgeStyle;rounded=0;orthogonalLoop=1;jettySize=auto;html=1;startArrow=classic;startFill=1;exitX=0.5;exitY=0;exitDx=0;exitDy=0;" parent="hI6pShK_uIfL2IwK5o8l-17" source="PsFM-rLGv7YaEWFNjK9O-0" edge="1">
          <mxGeometry relative="1" as="geometry">
            <mxPoint x="760" y="614" as="sourcePoint" />
            <mxPoint x="759" y="542" as="targetPoint" />
          </mxGeometry>
        </mxCell>
        <mxCell id="PsFM-rLGv7YaEWFNjK9O-0" value="Power LPAR&lt;br&gt;3" style="image;aspect=fixed;perimeter=ellipsePerimeter;html=1;align=center;shadow=0;dashed=0;fontColor=#4277BB;labelBackgroundColor=default;fontSize=12;spacingTop=3;image=img/lib/ibm/vpc/PowerInstance.svg;" parent="hI6pShK_uIfL2IwK5o8l-17" vertex="1">
          <mxGeometry x="729" y="573" width="60" height="60" as="geometry" />
        </mxCell>
        <mxCell id="GwX5p2IE3mZahsuDqDPP-0" value="Private Subnet" style="html=1;outlineConnect=0;fillColor=#CCCCCC;strokeColor=#6881B3;gradientColor=none;gradientDirection=north;strokeWidth=2;shape=mxgraph.networks.bus;gradientColor=none;gradientDirection=north;fontColor=#000000;perimeter=backbonePerimeter;backboneSize=20;" parent="hI6pShK_uIfL2IwK5o8l-17" vertex="1">
          <mxGeometry x="422" y="519" width="138" height="20" as="geometry" />
        </mxCell>
        <mxCell id="GwX5p2IE3mZahsuDqDPP-2" value="Private Subnet" style="html=1;outlineConnect=0;fillColor=#CCCCCC;strokeColor=#6881B3;gradientColor=none;gradientDirection=north;strokeWidth=2;shape=mxgraph.networks.bus;gradientColor=none;gradientDirection=north;fontColor=#000000;perimeter=backbonePerimeter;backboneSize=20;" parent="hI6pShK_uIfL2IwK5o8l-17" vertex="1">
          <mxGeometry x="730" y="523" width="230" height="20" as="geometry" />
        </mxCell>
        <mxCell id="H0kjCQYaIr2qzv7NUylS-0" style="edgeStyle=orthogonalEdgeStyle;rounded=0;orthogonalLoop=1;jettySize=auto;html=1;startArrow=classic;startFill=1;exitX=0.5;exitY=0;exitDx=0;exitDy=0;" parent="hI6pShK_uIfL2IwK5o8l-17" edge="1">
          <mxGeometry relative="1" as="geometry">
            <mxPoint x="451" y="571" as="sourcePoint" />
            <mxPoint x="451" y="540" as="targetPoint" />
          </mxGeometry>
        </mxCell>
        <mxCell id="ritze9ClMiPvCXfz-vvs-11" value="Data Volume" style="image;aspect=fixed;perimeter=ellipsePerimeter;html=1;align=center;shadow=0;dashed=0;fontColor=#4277BB;labelBackgroundColor=default;fontSize=12;spacingTop=3;image=img/lib/ibm/vpc/BlockStorage.svg;" parent="hI6pShK_uIfL2IwK5o8l-17" vertex="1">
          <mxGeometry x="421" y="689" width="60" height="60" as="geometry" />
        </mxCell>
        <mxCell id="oAfYxlStz5vdsHOmXEBj-2" value="" style="edgeStyle=orthogonalEdgeStyle;rounded=0;orthogonalLoop=1;jettySize=auto;html=1;" edge="1" source="oAfYxlStz5vdsHOmXEBj-3" target="oAfYxlStz5vdsHOmXEBj-5" parent="hI6pShK_uIfL2IwK5o8l-17">
          <mxGeometry relative="1" as="geometry" />
        </mxCell>
        <mxCell id="oAfYxlStz5vdsHOmXEBj-3" value="Power LPAR&lt;div&gt;2&lt;/div&gt;" style="image;aspect=fixed;perimeter=ellipsePerimeter;html=1;align=center;shadow=0;dashed=0;fontColor=#4277BB;labelBackgroundColor=default;fontSize=12;spacingTop=3;image=img/lib/ibm/vpc/PowerInstance.svg;" vertex="1" parent="hI6pShK_uIfL2IwK5o8l-17">
          <mxGeometry x="507" y="569" width="60" height="60" as="geometry" />
        </mxCell>
        <mxCell id="oAfYxlStz5vdsHOmXEBj-4" style="edgeStyle=orthogonalEdgeStyle;rounded=0;orthogonalLoop=1;jettySize=auto;html=1;startArrow=classic;startFill=1;exitX=0.5;exitY=0;exitDx=0;exitDy=0;" edge="1" parent="hI6pShK_uIfL2IwK5o8l-17">
          <mxGeometry relative="1" as="geometry">
            <mxPoint x="537" y="571" as="sourcePoint" />
            <mxPoint x="537" y="540" as="targetPoint" />
          </mxGeometry>
        </mxCell>
        <mxCell id="oAfYxlStz5vdsHOmXEBj-5" value="Clone of&lt;br&gt;Data Volume" style="image;aspect=fixed;perimeter=ellipsePerimeter;html=1;align=center;shadow=0;dashed=0;fontColor=#4277BB;labelBackgroundColor=default;fontSize=12;spacingTop=3;image=img/lib/ibm/vpc/BlockStorage.svg;" vertex="1" parent="hI6pShK_uIfL2IwK5o8l-17">
          <mxGeometry x="507" y="689" width="60" height="60" as="geometry" />
        </mxCell>
        <object label="2. Int. Network" id="H0kjCQYaIr2qzv7NUylS-8">
          <mxCell style="locked=1;" parent="hI6pShK_uIfL2IwK5o8l-0" />
        </object>
        <mxCell id="H0kjCQYaIr2qzv7NUylS-9" value="" style="edgeStyle=orthogonalEdgeStyle;rounded=0;orthogonalLoop=1;jettySize=auto;html=1;startArrow=classic;startFill=1;entryX=0.68;entryY=1.004;entryDx=0;entryDy=0;entryPerimeter=0;" parent="H0kjCQYaIr2qzv7NUylS-8" target="H0kjCQYaIr2qzv7NUylS-10" edge="1">
          <mxGeometry relative="1" as="geometry">
            <mxPoint x="720" y="530" as="sourcePoint" />
            <mxPoint x="700" y="449" as="targetPoint" />
            <Array as="points">
              <mxPoint x="675" y="530" />
            </Array>
          </mxGeometry>
        </mxCell>
        <mxCell id="H0kjCQYaIr2qzv7NUylS-10" value="&lt;div&gt;Transit&lt;/div&gt;&lt;div&gt;Gateway&lt;/div&gt;" style="image;aspect=fixed;perimeter=ellipsePerimeter;html=1;align=center;shadow=0;dashed=0;fontColor=#4277BB;labelBackgroundColor=default;fontSize=12;spacingTop=3;image=img/lib/ibm/vpc/TransitGateway.svg;labelPosition=left;verticalLabelPosition=middle;verticalAlign=middle;" parent="H0kjCQYaIr2qzv7NUylS-8" vertex="1">
          <mxGeometry x="634" y="383" width="60" height="60" as="geometry" />
        </mxCell>
        <mxCell id="H0kjCQYaIr2qzv7NUylS-11" style="edgeStyle=orthogonalEdgeStyle;rounded=0;orthogonalLoop=1;jettySize=auto;html=1;startArrow=classic;startFill=1;" parent="H0kjCQYaIr2qzv7NUylS-8" edge="1">
          <mxGeometry relative="1" as="geometry">
            <mxPoint x="663" y="390" as="sourcePoint" />
            <mxPoint x="663" y="366" as="targetPoint" />
          </mxGeometry>
        </mxCell>
        <mxCell id="H0kjCQYaIr2qzv7NUylS-12" value="" style="edgeStyle=orthogonalEdgeStyle;rounded=0;orthogonalLoop=1;jettySize=auto;html=1;startArrow=classic;startFill=1;" parent="H0kjCQYaIr2qzv7NUylS-8" edge="1">
          <mxGeometry relative="1" as="geometry">
            <mxPoint x="560" y="530" as="sourcePoint" />
            <Array as="points">
              <mxPoint x="650" y="530" />
              <mxPoint x="650" y="443" />
            </Array>
            <mxPoint x="650" y="440" as="targetPoint" />
          </mxGeometry>
        </mxCell>
        <object label="3. Internet" id="ritze9ClMiPvCXfz-vvs-14">
          <mxCell style="locked=1;" parent="hI6pShK_uIfL2IwK5o8l-0" />
        </object>
        <mxCell id="ritze9ClMiPvCXfz-vvs-16" value="" style="image;aspect=fixed;perimeter=ellipsePerimeter;html=1;align=center;shadow=0;dashed=0;fontColor=#4277BB;labelBackgroundColor=default;fontSize=12;spacingTop=3;image=img/lib/ibm/vpc/PublicGateway.svg;rotation=-180;verticalAlign=bottom;labelPosition=center;verticalLabelPosition=top;textDirection=rtl;" parent="ritze9ClMiPvCXfz-vvs-14" vertex="1">
          <mxGeometry x="420" y="119" width="60" height="60" as="geometry" />
        </mxCell>
        <mxCell id="ritze9ClMiPvCXfz-vvs-17" value="Floating IP" style="image;aspect=fixed;perimeter=ellipsePerimeter;html=1;align=center;shadow=0;dashed=0;fontColor=#4277BB;labelBackgroundColor=default;fontSize=12;spacingTop=-26;image=img/lib/ibm/vpc/FloatingIP.svg;" parent="ritze9ClMiPvCXfz-vvs-14" vertex="1">
          <mxGeometry x="360" y="70" width="60" height="60" as="geometry" />
        </mxCell>
        <mxCell id="ritze9ClMiPvCXfz-vvs-18" value="" style="html=1;labelBackgroundColor=#ffffff;startArrow=classic;startFill=1;startSize=6;endArrow=classic;endFill=1;endSize=6;jettySize=auto;orthogonalLoop=1;strokeWidth=1;fontSize=14;rounded=0;entryX=0;entryY=0.5;entryDx=0;entryDy=0;" parent="ritze9ClMiPvCXfz-vvs-14" target="ritze9ClMiPvCXfz-vvs-17" edge="1">
          <mxGeometry width="60" height="60" relative="1" as="geometry">
            <mxPoint x="250" y="360" as="sourcePoint" />
            <mxPoint x="610" y="450" as="targetPoint" />
            <Array as="points">
              <mxPoint x="250" y="100" />
            </Array>
          </mxGeometry>
        </mxCell>
        <mxCell id="ritze9ClMiPvCXfz-vvs-20" value="Public Gateway" style="text;html=1;align=center;verticalAlign=middle;whiteSpace=wrap;rounded=0;fontColor=#0066CC;" parent="ritze9ClMiPvCXfz-vvs-14" vertex="1">
          <mxGeometry x="402" y="176" width="90" height="30" as="geometry" />
        </mxCell>
        <mxCell id="ritze9ClMiPvCXfz-vvs-21" value="" style="edgeStyle=elbowEdgeStyle;rounded=0;elbow=vertical;html=1;labelBackgroundColor=#ffffff;startArrow=classic;startFill=1;startSize=6;endArrow=none;endFill=0;endSize=6;jettySize=auto;orthogonalLoop=1;strokeWidth=1;fontSize=14;entryX=1;entryY=0.5;entryDx=0;entryDy=0;" parent="ritze9ClMiPvCXfz-vvs-14" target="ritze9ClMiPvCXfz-vvs-16" edge="1">
          <mxGeometry width="60" height="60" relative="1" as="geometry">
            <mxPoint x="290" y="360" as="sourcePoint" />
            <mxPoint x="610" y="450" as="targetPoint" />
            <Array as="points">
              <mxPoint x="350" y="149" />
            </Array>
          </mxGeometry>
        </mxCell>
        <mxCell id="oAfYxlStz5vdsHOmXEBj-0" value="SVA User" style="image;aspect=fixed;perimeter=ellipsePerimeter;html=1;align=center;shadow=0;dashed=0;fontColor=#4277BB;labelBackgroundColor=default;fontSize=12;spacingTop=3;image=img/lib/ibm/users/user.svg;" vertex="1" parent="ritze9ClMiPvCXfz-vvs-14">
          <mxGeometry x="180" y="440" width="60" height="60" as="geometry" />
        </mxCell>
        <object label="6. Backup COS" id="ritze9ClMiPvCXfz-vvs-0">
          <mxCell style="locked=1;" parent="hI6pShK_uIfL2IwK5o8l-0" visible="0" />
        </object>
        <mxCell id="ritze9ClMiPvCXfz-vvs-1" value="&lt;div&gt;Cloud Object&lt;/div&gt;&lt;div&gt;Storage&lt;br&gt;&lt;/div&gt;" style="image;aspect=fixed;perimeter=ellipsePerimeter;html=1;align=center;shadow=0;dashed=0;fontColor=#4277BB;labelBackgroundColor=default;fontSize=12;spacingTop=3;image=img/lib/ibm/vpc/ObjectStorage.svg;" parent="ritze9ClMiPvCXfz-vvs-0" vertex="1">
          <mxGeometry x="1020" y="209" width="60" height="60" as="geometry" />
        </mxCell>
        <mxCell id="ritze9ClMiPvCXfz-vvs-2" style="edgeStyle=orthogonalEdgeStyle;rounded=0;orthogonalLoop=1;jettySize=auto;html=1;entryX=0;entryY=0.5;entryDx=0;entryDy=0;startArrow=classic;startFill=1;" parent="ritze9ClMiPvCXfz-vvs-0" source="ritze9ClMiPvCXfz-vvs-3" target="ritze9ClMiPvCXfz-vvs-1" edge="1">
          <mxGeometry relative="1" as="geometry" />
        </mxCell>
        <mxCell id="ritze9ClMiPvCXfz-vvs-3" value="&lt;div&gt;Virtual Private&lt;/div&gt;&lt;div&gt;Endpoint&lt;br&gt;&lt;/div&gt;" style="image;aspect=fixed;perimeter=ellipsePerimeter;html=1;align=center;shadow=0;dashed=0;fontColor=#4277BB;labelBackgroundColor=default;fontSize=12;spacingTop=3;image=img/lib/ibm/vpc/Router.svg;" parent="ritze9ClMiPvCXfz-vvs-0" vertex="1">
          <mxGeometry x="860" y="209" width="60" height="60" as="geometry" />
        </mxCell>
        <object label="7. Jump Host" id="H0kjCQYaIr2qzv7NUylS-2">
          <mxCell style="locked=1;" parent="hI6pShK_uIfL2IwK5o8l-0" />
        </object>
        <mxCell id="H0kjCQYaIr2qzv7NUylS-6" value="Linux Jump Host&lt;br&gt;e.g. for SSH, CLI, ..." style="image;aspect=fixed;perimeter=ellipsePerimeter;html=1;align=center;shadow=0;dashed=0;fontColor=#4277BB;labelBackgroundColor=default;fontSize=12;spacingTop=3;image=img/lib/ibm/vpc/Instance.svg;" parent="H0kjCQYaIr2qzv7NUylS-2" vertex="1">
          <mxGeometry x="540" y="210" width="60" height="60" as="geometry" />
        </mxCell>
        <object label="8. Add Services" id="ritze9ClMiPvCXfz-vvs-4">
          <mxCell style="locked=1;" parent="hI6pShK_uIfL2IwK5o8l-0" />
        </object>
        <mxCell id="ritze9ClMiPvCXfz-vvs-5" value="Logging &amp;amp;&lt;br&gt;Monitoring" style="image;aspect=fixed;perimeter=ellipsePerimeter;html=1;align=center;shadow=0;dashed=0;fontColor=#4277BB;labelBackgroundColor=default;fontSize=12;spacingTop=3;image=img/lib/ibm/management/monitoring_metrics.svg;" parent="ritze9ClMiPvCXfz-vvs-4" vertex="1">
          <mxGeometry x="1020" y="309" width="60" height="60" as="geometry" />
        </mxCell>
        <mxCell id="ritze9ClMiPvCXfz-vvs-7" value="Backup aaS" style="image;aspect=fixed;perimeter=ellipsePerimeter;html=1;align=center;shadow=0;dashed=0;fontColor=#4277BB;labelBackgroundColor=default;fontSize=12;spacingTop=3;image=img/lib/ibm/data/device_identity_service.svg;" parent="ritze9ClMiPvCXfz-vvs-4" vertex="1">
          <mxGeometry x="1020" y="410" width="60" height="60" as="geometry" />
        </mxCell>
      </root>
    </mxGraphModel>
  </diagram>
</mxfile>
